<!-- Generated by IcoMoon.io -->
<svg version="1.1" xmlns="http://www.w3.org/2000/svg" width="32" height="32" viewBox="0 0 32 32">
<title>logo-1</title>
<path d="M11.472 9.057l2.116 2.003-3.927-0.002v9.717h10.264v-3.715l2.113 2.001v-10.003h-10.566zM19.832 16.824l-5.998-5.679h5.998v5.679zM17.969 19.353h-6.685v-6.535h0.473v6.093h6.212v0.442zM12.863 22.068h0.206l-0.36 0.678v0.395h-0.187v-0.395l-0.36-0.678h0.207l0.247 0.509 0.247-0.509zM13.173 23.141l0.087-0.25h0.416l0.088 0.25h0.195l-0.406-1.073h-0.167l-0.405 1.073h0.194zM13.468 22.295l0.155 0.445h-0.311l0.156-0.445zM14.451 22.715c0.027-0.042 0.080-0.091 0.16-0.148-0.042-0.053-0.071-0.097-0.088-0.134s-0.024-0.072-0.024-0.107c0-0.084 0.026-0.15 0.077-0.199s0.12-0.074 0.206-0.074c0.078 0 0.142 0.023 0.192 0.069s0.075 0.102 0.075 0.17c0 0.045-0.011 0.086-0.034 0.124s-0.060 0.075-0.111 0.112l-0.073 0.053 0.207 0.245c0.030-0.059 0.045-0.125 0.045-0.197h0.155c0 0.132-0.031 0.241-0.093 0.325l0.158 0.186h-0.208l-0.060-0.072c-0.077 0.057-0.168 0.086-0.274 0.086s-0.191-0.028-0.255-0.084c-0.063-0.056-0.095-0.13-0.095-0.22 0-0.050 0.014-0.095 0.041-0.136zM14.936 22.952l-0.234-0.276-0.023 0.016c-0.059 0.045-0.088 0.096-0.088 0.153 0 0.050 0.016 0.090 0.048 0.121s0.075 0.046 0.128 0.046c0.060 0 0.117-0.020 0.169-0.060zM14.743 22.477l0.082-0.056 0.023-0.018c0.030-0.027 0.046-0.062 0.046-0.104 0-0.028-0.011-0.052-0.032-0.072s-0.048-0.030-0.080-0.030c-0.035 0-0.063 0.012-0.083 0.035s-0.031 0.053-0.031 0.089c0 0.041 0.025 0.093 0.076 0.155zM16.49 23.060c-0.074 0.064-0.172 0.096-0.294 0.096-0.085 0-0.161-0.020-0.226-0.060s-0.115-0.099-0.15-0.173-0.054-0.161-0.055-0.26v-0.1c0-0.101 0.018-0.19 0.054-0.268s0.087-0.137 0.154-0.178c0.067-0.042 0.145-0.063 0.233-0.063 0.118 0 0.214 0.032 0.286 0.097s0.114 0.155 0.126 0.273h-0.186c-0.009-0.077-0.031-0.133-0.068-0.167s-0.089-0.052-0.158-0.052c-0.081 0-0.143 0.030-0.187 0.089s-0.065 0.146-0.066 0.26v0.095c0 0.116 0.021 0.204 0.062 0.265s0.103 0.091 0.183 0.091c0.073 0 0.128-0.016 0.165-0.049s0.060-0.088 0.070-0.164h0.186c-0.011 0.114-0.053 0.204-0.127 0.268zM17.586 22.909c-0.036 0.079-0.088 0.14-0.156 0.183s-0.145 0.063-0.233 0.063c-0.087 0-0.165-0.021-0.233-0.063s-0.12-0.103-0.158-0.182c-0.037-0.079-0.056-0.169-0.056-0.272v-0.060c0-0.105 0.018-0.197 0.055-0.277s0.090-0.141 0.157-0.184c0.068-0.043 0.145-0.064 0.233-0.064s0.165 0.021 0.232 0.063c0.068 0.042 0.12 0.102 0.157 0.181s0.056 0.17 0.056 0.275v0.060c0 0.105-0.018 0.198-0.055 0.277zM17.386 22.303c-0.045-0.063-0.108-0.095-0.191-0.095-0.081 0-0.144 0.032-0.189 0.095s-0.068 0.152-0.069 0.268v0.062c0 0.118 0.023 0.209 0.069 0.273s0.11 0.097 0.192 0.097c0.083 0 0.146-0.031 0.19-0.094s0.067-0.155 0.067-0.276v-0.056c0-0.119-0.023-0.21-0.068-0.273z"></path>
</svg>
